{
   "accessors" : 
   [
      {
         "bufferView" : 0,
         "byteOffset" : 0,
         "componentType" : 5126,
         "count" : 851,
         "max" : [ 25.0, 120.0, 12.350000381469727 ],
         "min" : [ -25.0, -60.0, -12.649999618530273 ],
         "type" : "VEC3"
      },
      {
         "bufferView" : 1,
         "byteOffset" : 0,
         "componentType" : 5121,
         "count" : 1720,
         "normalized" : true,
         "type" : "VEC4"
      },
      {
         "bufferView" : 2,
         "byteOffset" : 0,
         "componentType" : 5125,
         "count" : 5160,
         "type" : "SCALAR"
      }
   ],
   "asset" : 
   {
      "generator" : "VTK",
      "version" : "2.0"
   },
   "bufferViews" : 
   [
      {
         "buffer" : 0,
         "byteLength" : 10212,
         "byteOffset" : 0
      },
      {
         "buffer" : 1,
         "byteLength" : 6880,
         "byteOffset" : 0
      },
      {
         "buffer" : 2,
         "byteLength" : 20640,
         "byteOffset" : 0
      }
   ],
   "buffers" : 
   [
      {
         "byteLength" : 10212,
         "uri" : "data:application/octet-stream;base64,"
      },
      {
         "byteLength" : 6880,
         "uri" : "data:application/octet-stream;base64,"
      },
      {
         "byteLength" : 20640,
         "uri" : "data:application/octet-stream;base64,"
      }
   ],
   "cameras" : 
   [
      {
         "perspective" : 
         {
            "aspectRatio" : 1.3333333333333333,
            "yfov" : 0.52359877559829882,
            "zfar" : 400.89113687673034,
            "znear" : 335.60071478617056
         },
         "type" : "perspective"
      }
   ],
   "materials" : 
   [
      {
         "pbrMetallicRoughness" : 
         {
            "baseColorFactor" : [ 1.0, 1.0, 1.0, 1.0 ],
            "metallicFactor" : 0.0,
            "roughnessFactor" : 1.0
         }
      }
   ],
   "meshes" : 
   [
      {
         "name" : "mesh0",
         "primitives" : 
         [
            {
               "attributes" : 
               {
                  "COLOR_0" : 1,
                  "POSITION" : 0
               },
               "indices" : 2,
               "material" : 0,
               "mode" : 4
            }
         ]
      }
   ],
   "nodes" : 
   [
      {
         "matrix" : 
         [
            2.2204460492503141e-16,
            -3.3306690738754691e-16,
            1.0000000000000002,
            0.0,
            1.0,
            2.2204460492503131e-16,
            -2.2204460492503131e-16,
            0.0,
            -2.2204460492503128e-16,
            1.0000000000000002,
            3.3306690738754696e-16,
            0.0,
            0.0,
            0.0,
            0.0,
            1.0
         ],
         "mesh" : 0,
         "name" : "mesh0"
      },
      {
         "camera" : 0,
         "matrix" : 
         [
            1.0,
            0.0,
            0.0,
            0.0,
            0.0,
            1.0,
            0.0,
            0.0,
            0.0,
            0.0,
            1.0,
            0.0,
            0.0,
            -30.0,
            -363.96688400386421,
            1.0
         ],
         "name" : "Camera Node"
      },
      {
         "children" : [ 0, 1 ],
         "name" : "Renderer Node"
      }
   ],
   "scene" : 0,
   "scenes" : 
   [
      {
         "name" : "Layer 0",
         "nodes" : [ 2 ]
      }
   ]
}